<?xml version="1.0" encoding="UTF-8"?>
<svg xmlns="http://www.w3.org/2000/svg" width="850" height="1100" viewBox="0 0 850 1100" role="img" aria-labelledby="title desc">
<title id="title">Resume cover sheet mockup</title>
<desc id="desc">Clean vector resume cover-sheet template with one DS placement and ATS-safe content rhythm.</desc>

<defs>
  <filter id="softShadow" x="-20%" y="-20%" width="140%" height="140%">
    <feDropShadow dx="0" dy="8" stdDeviation="8" flood-color="#010414" flood-opacity="0.13"/>
  </filter>
  <filter id="smallShadow" x="-20%" y="-20%" width="140%" height="140%">
    <feDropShadow dx="0" dy="3" stdDeviation="3" flood-color="#010414" flood-opacity="0.12"/>
  </filter>
  <linearGradient id="midnightGrad" x1="0" x2="1" y1="0" y2="1">
    <stop offset="0" stop-color="#010414"/>
    <stop offset="0.72" stop-color="#091F3B"/>
    <stop offset="1" stop-color="#0145C8"/>
  </linearGradient>
  <linearGradient id="blueGrad" x1="0" x2="1" y1="0" y2="1">
    <stop offset="0" stop-color="#005FED"/>
    <stop offset="1" stop-color="#0145C8"/>
  </linearGradient>
  <linearGradient id="cardGrad" x1="0" x2="1" y1="0" y2="1">
    <stop offset="0" stop-color="#FFFFFF"/>
    <stop offset="1" stop-color="#EEF2F7"/>
  </linearGradient>
  <clipPath id="roundClip">
    <rect x="0" y="0" width="100%" height="100%" rx="28"/>
  </clipPath>
  
</defs>

<rect x="0" y="0" width="850" height="1100" fill="#F9F9FA"/><rect x="0" y="0" width="170" height="1100" fill="url(#midnightGrad)"/><g transform="translate(42.000 56.787) scale(0.220472)" opacity="1">
  <path d="M4.0,4.0 L4.0,326.0 L141.0,326.0 L142.0,325.0 L150.0,325.0 L151.0,324.0 L157.0,324.0 L158.0,323.0 L161.0,323.0 L162.0,322.0 L166.0,322.0 L167.0,321.0 L170.0,321.0 L171.0,320.0 L173.0,320.0 L174.0,319.0 L176.0,319.0 L177.0,318.0 L179.0,318.0 L180.0,317.0 L182.0,317.0 L183.0,316.0 L184.0,316.0 L185.0,315.0 L187.0,315.0 L188.0,314.0 L189.0,314.0 L190.0,313.0 L191.0,313.0 L192.0,312.0 L193.0,312.0 L194.0,311.0 L195.0,311.0 L196.0,310.0 L197.0,310.0 L198.0,309.0 L199.0,309.0 L200.0,308.0 L201.0,308.0 L203.0,306.0 L204.0,306.0 L206.0,304.0 L207.0,304.0 L209.0,302.0 L210.0,302.0 L214.0,298.0 L215.0,298.0 L228.0,285.0 L228.0,284.0 L232.0,280.0 L232.0,279.0 L234.0,277.0 L234.0,276.0 L236.0,274.0 L234.0,274.0 L233.0,273.0 L231.0,273.0 L230.0,272.0 L228.0,272.0 L227.0,271.0 L224.0,271.0 L223.0,270.0 L221.0,270.0 L220.0,269.0 L219.0,269.0 L218.0,268.0 L216.0,268.0 L215.0,267.0 L214.0,267.0 L213.0,266.0 L212.0,266.0 L211.0,265.0 L210.0,265.0 L209.0,264.0 L208.0,264.0 L207.0,263.0 L206.0,263.0 L205.0,262.0 L204.0,262.0 L202.0,260.0 L201.0,260.0 L200.0,259.0 L199.0,259.0 L196.0,256.0 L195.0,256.0 L192.0,253.0 L191.0,253.0 L188.0,250.0 L187.0,250.0 L184.0,253.0 L183.0,253.0 L177.0,259.0 L176.0,259.0 L174.0,261.0 L173.0,261.0 L171.0,263.0 L170.0,263.0 L168.0,265.0 L167.0,265.0 L166.0,266.0 L165.0,266.0 L164.0,267.0 L163.0,267.0 L162.0,268.0 L160.0,268.0 L159.0,269.0 L158.0,269.0 L157.0,270.0 L155.0,270.0 L154.0,271.0 L153.0,271.0 L152.0,272.0 L149.0,272.0 L148.0,273.0 L144.0,273.0 L143.0,274.0 L135.0,274.0 L134.0,275.0 L55.0,275.0 L53.0,273.0 L53.0,53.0 L55.0,51.0 L136.0,51.0 L137.0,52.0 L143.0,52.0 L144.0,53.0 L147.0,53.0 L148.0,54.0 L151.0,54.0 L152.0,55.0 L154.0,55.0 L155.0,56.0 L157.0,56.0 L158.0,57.0 L160.0,57.0 L161.0,58.0 L162.0,58.0 L163.0,59.0 L164.0,59.0 L165.0,60.0 L167.0,60.0 L169.0,62.0 L170.0,62.0 L171.0,63.0 L172.0,63.0 L173.0,64.0 L174.0,64.0 L177.0,67.0 L178.0,67.0 L180.0,69.0 L181.0,69.0 L187.0,75.0 L188.0,75.0 L193.0,80.0 L193.0,81.0 L198.0,86.0 L198.0,87.0 L200.0,89.0 L200.0,90.0 L202.0,92.0 L202.0,93.0 L204.0,95.0 L204.0,96.0 L205.0,97.0 L205.0,98.0 L206.0,99.0 L206.0,100.0 L207.0,101.0 L207.0,102.0 L208.0,103.0 L208.0,104.0 L209.0,105.0 L209.0,107.0 L210.0,108.0 L210.0,110.0 L211.0,111.0 L211.0,113.0 L212.0,114.0 L212.0,116.0 L213.0,117.0 L213.0,118.0 L214.0,118.0 L215.0,117.0 L216.0,117.0 L217.0,116.0 L218.0,116.0 L219.0,115.0 L221.0,115.0 L222.0,114.0 L223.0,114.0 L224.0,113.0 L225.0,113.0 L226.0,112.0 L228.0,112.0 L229.0,111.0 L231.0,111.0 L232.0,110.0 L234.0,110.0 L235.0,109.0 L238.0,109.0 L239.0,108.0 L242.0,108.0 L243.0,107.0 L247.0,107.0 L248.0,106.0 L253.0,106.0 L254.0,105.0 L261.0,105.0 L262.0,104.0 L265.0,104.0 L264.0,103.0 L264.0,98.0 L263.0,97.0 L263.0,95.0 L262.0,94.0 L262.0,91.0 L261.0,90.0 L261.0,88.0 L260.0,87.0 L260.0,85.0 L259.0,84.0 L259.0,83.0 L258.0,82.0 L258.0,80.0 L257.0,79.0 L257.0,78.0 L256.0,77.0 L256.0,75.0 L255.0,74.0 L255.0,73.0 L254.0,72.0 L254.0,71.0 L253.0,70.0 L253.0,69.0 L251.0,67.0 L251.0,66.0 L250.0,65.0 L250.0,64.0 L248.0,62.0 L248.0,61.0 L246.0,59.0 L246.0,58.0 L244.0,56.0 L244.0,55.0 L239.0,50.0 L239.0,49.0 L226.0,36.0 L225.0,36.0 L221.0,32.0 L220.0,32.0 L217.0,29.0 L216.0,29.0 L214.0,27.0 L213.0,27.0 L212.0,26.0 L211.0,26.0 L209.0,24.0 L208.0,24.0 L207.0,23.0 L206.0,23.0 L205.0,22.0 L204.0,22.0 L202.0,20.0 L201.0,20.0 L200.0,19.0 L198.0,19.0 L197.0,18.0 L196.0,18.0 L195.0,17.0 L194.0,17.0 L193.0,16.0 L192.0,16.0 L191.0,15.0 L189.0,15.0 L188.0,14.0 L186.0,14.0 L185.0,13.0 L184.0,13.0 L183.0,12.0 L180.0,12.0 L179.0,11.0 L177.0,11.0 L176.0,10.0 L174.0,10.0 L173.0,9.0 L169.0,9.0 L168.0,8.0 L165.0,8.0 L164.0,7.0 L160.0,7.0 L159.0,6.0 L153.0,6.0 L152.0,5.0 L144.0,5.0 L143.0,4.0 Z" fill="#FFFFFF" fill-opacity="1" fill-rule="evenodd"/>
  <path d="M268.0,115.0 L267.0,116.0 L257.0,116.0 L256.0,117.0 L252.0,117.0 L251.0,118.0 L247.0,118.0 L246.0,119.0 L243.0,119.0 L242.0,120.0 L239.0,120.0 L238.0,121.0 L236.0,121.0 L235.0,122.0 L233.0,122.0 L232.0,123.0 L231.0,123.0 L230.0,124.0 L228.0,124.0 L227.0,125.0 L226.0,125.0 L225.0,126.0 L224.0,126.0 L223.0,127.0 L222.0,127.0 L221.0,128.0 L220.0,128.0 L219.0,129.0 L218.0,129.0 L217.0,130.0 L216.0,130.0 L215.0,131.0 L214.0,131.0 L212.0,133.0 L211.0,133.0 L208.0,136.0 L207.0,136.0 L204.0,139.0 L203.0,139.0 L195.0,147.0 L195.0,148.0 L191.0,152.0 L191.0,153.0 L189.0,155.0 L189.0,156.0 L187.0,158.0 L187.0,159.0 L186.0,160.0 L186.0,161.0 L185.0,162.0 L185.0,163.0 L184.0,164.0 L184.0,165.0 L183.0,166.0 L183.0,167.0 L182.0,168.0 L182.0,169.0 L181.0,170.0 L181.0,172.0 L180.0,173.0 L180.0,175.0 L179.0,176.0 L179.0,179.0 L178.0,180.0 L178.0,185.0 L177.0,186.0 L177.0,204.0 L178.0,205.0 L178.0,210.0 L179.0,211.0 L179.0,214.0 L180.0,215.0 L180.0,218.0 L181.0,219.0 L181.0,220.0 L182.0,221.0 L182.0,222.0 L183.0,223.0 L183.0,224.0 L184.0,225.0 L184.0,226.0 L185.0,227.0 L185.0,228.0 L186.0,229.0 L186.0,230.0 L188.0,232.0 L188.0,233.0 L191.0,236.0 L191.0,237.0 L198.0,244.0 L199.0,244.0 L202.0,247.0 L203.0,247.0 L205.0,249.0 L206.0,249.0 L208.0,251.0 L209.0,251.0 L210.0,252.0 L211.0,252.0 L212.0,253.0 L213.0,253.0 L214.0,254.0 L215.0,254.0 L216.0,255.0 L217.0,255.0 L218.0,256.0 L219.0,256.0 L220.0,257.0 L221.0,257.0 L222.0,258.0 L224.0,258.0 L225.0,259.0 L226.0,259.0 L227.0,260.0 L230.0,260.0 L231.0,261.0 L233.0,261.0 L234.0,262.0 L236.0,262.0 L237.0,263.0 L239.0,263.0 L240.0,264.0 L243.0,264.0 L244.0,265.0 L247.0,265.0 L248.0,266.0 L250.0,266.0 L251.0,267.0 L254.0,267.0 L255.0,268.0 L258.0,268.0 L259.0,269.0 L263.0,269.0 L264.0,270.0 L267.0,270.0 L268.0,271.0 L271.0,271.0 L272.0,272.0 L275.0,272.0 L276.0,273.0 L279.0,273.0 L280.0,274.0 L283.0,274.0 L284.0,275.0 L287.0,275.0 L288.0,276.0 L290.0,276.0 L291.0,277.0 L293.0,277.0 L294.0,278.0 L296.0,278.0 L297.0,279.0 L298.0,279.0 L299.0,280.0 L300.0,280.0 L301.0,281.0 L303.0,281.0 L305.0,283.0 L306.0,283.0 L307.0,284.0 L308.0,284.0 L310.0,286.0 L311.0,286.0 L320.0,295.0 L320.0,296.0 L321.0,297.0 L321.0,298.0 L322.0,299.0 L322.0,300.0 L323.0,301.0 L323.0,304.0 L324.0,305.0 L324.0,312.0 L323.0,313.0 L323.0,316.0 L322.0,317.0 L322.0,319.0 L321.0,320.0 L321.0,321.0 L320.0,322.0 L320.0,323.0 L318.0,325.0 L318.0,326.0 L312.0,332.0 L311.0,332.0 L309.0,334.0 L308.0,334.0 L306.0,336.0 L305.0,336.0 L304.0,337.0 L303.0,337.0 L302.0,338.0 L300.0,338.0 L299.0,339.0 L297.0,339.0 L296.0,340.0 L294.0,340.0 L293.0,341.0 L290.0,341.0 L289.0,342.0 L283.0,342.0 L282.0,343.0 L263.0,343.0 L262.0,342.0 L256.0,342.0 L255.0,341.0 L252.0,341.0 L251.0,340.0 L248.0,340.0 L247.0,339.0 L246.0,339.0 L245.0,338.0 L243.0,338.0 L242.0,337.0 L241.0,337.0 L240.0,336.0 L239.0,336.0 L238.0,335.0 L237.0,335.0 L235.0,333.0 L234.0,333.0 L232.0,331.0 L231.0,331.0 L221.0,321.0 L221.0,320.0 L219.0,318.0 L219.0,317.0 L217.0,315.0 L217.0,314.0 L216.0,313.0 L216.0,312.0 L215.0,312.0 L214.0,313.0 L213.0,313.0 L211.0,315.0 L210.0,315.0 L209.0,316.0 L208.0,316.0 L206.0,318.0 L205.0,318.0 L204.0,319.0 L203.0,319.0 L202.0,320.0 L201.0,320.0 L200.0,321.0 L199.0,321.0 L198.0,322.0 L197.0,322.0 L196.0,323.0 L195.0,323.0 L194.0,324.0 L193.0,324.0 L192.0,325.0 L190.0,325.0 L189.0,326.0 L187.0,326.0 L186.0,327.0 L185.0,327.0 L184.0,328.0 L181.0,328.0 L180.0,329.0 L178.0,329.0 L177.0,330.0 L175.0,330.0 L174.0,331.0 L172.0,331.0 L173.0,332.0 L173.0,334.0 L174.0,335.0 L174.0,336.0 L175.0,337.0 L175.0,338.0 L176.0,339.0 L176.0,340.0 L178.0,342.0 L178.0,343.0 L179.0,344.0 L179.0,345.0 L181.0,347.0 L181.0,348.0 L185.0,352.0 L185.0,353.0 L194.0,362.0 L195.0,362.0 L199.0,366.0 L200.0,366.0 L202.0,368.0 L203.0,368.0 L205.0,370.0 L206.0,370.0 L207.0,371.0 L208.0,371.0 L210.0,373.0 L211.0,373.0 L212.0,374.0 L213.0,374.0 L214.0,375.0 L216.0,375.0 L217.0,376.0 L218.0,376.0 L219.0,377.0 L220.0,377.0 L221.0,378.0 L223.0,378.0 L224.0,379.0 L225.0,379.0 L226.0,380.0 L229.0,380.0 L230.0,381.0 L232.0,381.0 L233.0,382.0 L236.0,382.0 L237.0,383.0 L240.0,383.0 L241.0,384.0 L246.0,384.0 L247.0,385.0 L253.0,385.0 L254.0,386.0 L265.0,386.0 L266.0,387.0 L278.0,387.0 L279.0,386.0 L291.0,386.0 L292.0,385.0 L298.0,385.0 L299.0,384.0 L304.0,384.0 L305.0,383.0 L309.0,383.0 L310.0,382.0 L312.0,382.0 L313.0,381.0 L316.0,381.0 L317.0,380.0 L319.0,380.0 L320.0,379.0 L322.0,379.0 L323.0,378.0 L325.0,378.0 L326.0,377.0 L327.0,377.0 L328.0,376.0 L329.0,376.0 L330.0,375.0 L332.0,375.0 L333.0,374.0 L334.0,374.0 L335.0,373.0 L336.0,373.0 L337.0,372.0 L338.0,372.0 L340.0,370.0 L341.0,370.0 L342.0,369.0 L343.0,369.0 L345.0,367.0 L346.0,367.0 L349.0,364.0 L350.0,364.0 L361.0,353.0 L361.0,352.0 L364.0,349.0 L364.0,348.0 L366.0,346.0 L366.0,345.0 L367.0,344.0 L367.0,343.0 L368.0,342.0 L368.0,341.0 L369.0,340.0 L369.0,339.0 L370.0,338.0 L370.0,337.0 L371.0,336.0 L371.0,335.0 L372.0,334.0 L372.0,332.0 L373.0,331.0 L373.0,328.0 L374.0,327.0 L374.0,324.0 L375.0,323.0 L375.0,319.0 L376.0,318.0 L376.0,294.0 L375.0,293.0 L375.0,288.0 L374.0,287.0 L374.0,284.0 L373.0,283.0 L373.0,281.0 L372.0,280.0 L372.0,279.0 L371.0,278.0 L371.0,277.0 L370.0,276.0 L370.0,274.0 L369.0,273.0 L369.0,272.0 L367.0,270.0 L367.0,269.0 L366.0,268.0 L366.0,267.0 L364.0,265.0 L364.0,264.0 L359.0,259.0 L359.0,258.0 L354.0,253.0 L353.0,253.0 L349.0,249.0 L348.0,249.0 L346.0,247.0 L345.0,247.0 L343.0,245.0 L342.0,245.0 L341.0,244.0 L340.0,244.0 L339.0,243.0 L338.0,243.0 L337.0,242.0 L336.0,242.0 L335.0,241.0 L334.0,241.0 L333.0,240.0 L332.0,240.0 L331.0,239.0 L330.0,239.0 L329.0,238.0 L327.0,238.0 L326.0,237.0 L325.0,237.0 L324.0,236.0 L322.0,236.0 L321.0,235.0 L319.0,235.0 L318.0,234.0 L316.0,234.0 L315.0,233.0 L313.0,233.0 L312.0,232.0 L310.0,232.0 L309.0,231.0 L306.0,231.0 L305.0,230.0 L302.0,230.0 L301.0,229.0 L298.0,229.0 L297.0,228.0 L294.0,228.0 L293.0,227.0 L289.0,227.0 L288.0,226.0 L285.0,226.0 L284.0,225.0 L280.0,225.0 L279.0,224.0 L275.0,224.0 L274.0,223.0 L271.0,223.0 L270.0,222.0 L267.0,222.0 L266.0,221.0 L263.0,221.0 L262.0,220.0 L259.0,220.0 L258.0,219.0 L256.0,219.0 L255.0,218.0 L253.0,218.0 L252.0,217.0 L251.0,217.0 L250.0,216.0 L248.0,216.0 L246.0,214.0 L245.0,214.0 L244.0,213.0 L243.0,213.0 L241.0,211.0 L240.0,211.0 L235.0,206.0 L235.0,205.0 L233.0,203.0 L233.0,202.0 L232.0,201.0 L232.0,199.0 L231.0,198.0 L231.0,195.0 L230.0,194.0 L230.0,189.0 L231.0,188.0 L231.0,184.0 L232.0,183.0 L232.0,181.0 L233.0,180.0 L233.0,179.0 L234.0,178.0 L234.0,177.0 L244.0,167.0 L245.0,167.0 L246.0,166.0 L247.0,166.0 L248.0,165.0 L249.0,165.0 L250.0,164.0 L251.0,164.0 L252.0,163.0 L253.0,163.0 L254.0,162.0 L257.0,162.0 L258.0,161.0 L261.0,161.0 L262.0,160.0 L267.0,160.0 L268.0,159.0 L283.0,159.0 L284.0,160.0 L290.0,160.0 L291.0,161.0 L294.0,161.0 L295.0,162.0 L297.0,162.0 L298.0,163.0 L300.0,163.0 L301.0,164.0 L302.0,164.0 L303.0,165.0 L304.0,165.0 L305.0,166.0 L306.0,166.0 L307.0,167.0 L308.0,167.0 L311.0,170.0 L312.0,170.0 L318.0,176.0 L318.0,177.0 L320.0,179.0 L320.0,180.0 L321.0,181.0 L321.0,183.0 L322.0,184.0 L322.0,186.0 L323.0,187.0 L323.0,190.0 L375.0,190.0 L375.0,182.0 L374.0,181.0 L374.0,176.0 L373.0,175.0 L373.0,172.0 L372.0,171.0 L372.0,169.0 L371.0,168.0 L371.0,166.0 L370.0,165.0 L370.0,163.0 L369.0,162.0 L369.0,161.0 L368.0,160.0 L368.0,159.0 L367.0,158.0 L367.0,157.0 L366.0,156.0 L366.0,155.0 L364.0,153.0 L364.0,152.0 L362.0,150.0 L362.0,149.0 L349.0,136.0 L348.0,136.0 L345.0,133.0 L344.0,133.0 L342.0,131.0 L341.0,131.0 L340.0,130.0 L339.0,130.0 L338.0,129.0 L337.0,129.0 L336.0,128.0 L335.0,128.0 L334.0,127.0 L333.0,127.0 L332.0,126.0 L331.0,126.0 L330.0,125.0 L329.0,125.0 L328.0,124.0 L326.0,124.0 L325.0,123.0 L323.0,123.0 L322.0,122.0 L320.0,122.0 L319.0,121.0 L317.0,121.0 L316.0,120.0 L313.0,120.0 L312.0,119.0 L309.0,119.0 L308.0,118.0 L303.0,118.0 L302.0,117.0 L296.0,117.0 L295.0,116.0 L285.0,116.0 L284.0,115.0 Z M165.0,111.0 L143.0,111.0 L141.0,113.0 L141.0,259.0 L142.0,260.0 L143.0,260.0 L144.0,259.0 L147.0,259.0 L148.0,258.0 L151.0,258.0 L152.0,257.0 L154.0,257.0 L155.0,256.0 L156.0,256.0 L157.0,255.0 L159.0,255.0 L160.0,254.0 L161.0,254.0 L162.0,253.0 L163.0,253.0 L164.0,252.0 L165.0,252.0 L166.0,251.0 L166.0,112.0 Z M105.0,150.0 L104.0,151.0 L104.0,258.0 L106.0,260.0 L127.0,260.0 L129.0,258.0 L129.0,152.0 L127.0,150.0 Z M70.0,191.0 L68.0,193.0 L68.0,258.0 L70.0,260.0 L90.0,260.0 L91.0,259.0 L92.0,259.0 L92.0,192.0 L91.0,191.0 Z" fill="#005FED" fill-opacity="1" fill-rule="evenodd"/>
</g><g><rect x="46.0" y="940.9" width="15.299999999999999" height="35.699999999999996" fill="#005FED" rx="4.25" opacity="0.45"/><rect x="71.5" y="918.8" width="15.299999999999999" height="57.8" fill="#005FED" rx="4.25" opacity="0.45"/><rect x="97.0" y="895.0" width="15.299999999999999" height="81.6" fill="#005FED" rx="4.25" opacity="0.45"/></g><text x="220" y="92" font-family="Inter, Arial, sans-serif" font-size="34" font-weight="800" fill="#091F3B" text-anchor="start">Daniel Short</text><text x="222" y="126" font-family="Inter, Arial, sans-serif" font-size="17" font-weight="500" fill="#334155" text-anchor="start">Data Analytics &amp; BI</text><line x1="220" y1="152" x2="420" y2="152" stroke="#D97706" stroke-width="4" stroke-linecap="round"/><text x="220" y="192" font-family="Inter, Arial, sans-serif" font-size="18" font-weight="800" fill="#091F3B" text-anchor="start">Experience</text><line x1="220" y1="220" x2="760" y2="220" stroke="#CBD5E1" stroke-width="4" stroke-linecap="round"/><line x1="220" y1="252" x2="710" y2="252" stroke="#CBD5E1" stroke-width="3" stroke-linecap="round"/><line x1="220" y1="278" x2="730" y2="278" stroke="#CBD5E1" stroke-width="3" stroke-linecap="round"/><line x1="220" y1="304" x2="650" y2="304" stroke="#CBD5E1" stroke-width="3" stroke-linecap="round"/><text x="220" y="352" font-family="Inter, Arial, sans-serif" font-size="18" font-weight="800" fill="#091F3B" text-anchor="start">Selected impact</text><line x1="220" y1="380" x2="760" y2="380" stroke="#CBD5E1" stroke-width="4" stroke-linecap="round"/><line x1="220" y1="412" x2="710" y2="412" stroke="#CBD5E1" stroke-width="3" stroke-linecap="round"/><line x1="220" y1="438" x2="730" y2="438" stroke="#CBD5E1" stroke-width="3" stroke-linecap="round"/><line x1="220" y1="464" x2="650" y2="464" stroke="#CBD5E1" stroke-width="3" stroke-linecap="round"/><text x="220" y="512" font-family="Inter, Arial, sans-serif" font-size="18" font-weight="800" fill="#091F3B" text-anchor="start">Tools</text><line x1="220" y1="540" x2="760" y2="540" stroke="#CBD5E1" stroke-width="4" stroke-linecap="round"/><line x1="220" y1="572" x2="710" y2="572" stroke="#CBD5E1" stroke-width="3" stroke-linecap="round"/><line x1="220" y1="598" x2="730" y2="598" stroke="#CBD5E1" stroke-width="3" stroke-linecap="round"/><line x1="220" y1="624" x2="650" y2="624" stroke="#CBD5E1" stroke-width="3" stroke-linecap="round"/><rect x="220" y="740" width="140" height="92" fill="#FFFFFF" rx="14" stroke="#CBD5E1" stroke-width="1.4" filter="url(#smallShadow)"/><text x="238" y="778" font-family="Inter, Arial, sans-serif" font-size="16" font-weight="800" fill="#005FED" text-anchor="start">KPI</text><line x1="238" y1="803" x2="320" y2="803" stroke="#CBD5E1" stroke-width="3" stroke-linecap="round"/><line x1="238" y1="825" x2="304" y2="825" stroke="#CBD5E1" stroke-width="3" stroke-linecap="round"/><rect x="400" y="740" width="140" height="92" fill="#FFFFFF" rx="14" stroke="#CBD5E1" stroke-width="1.4" filter="url(#smallShadow)"/><text x="418" y="778" font-family="Inter, Arial, sans-serif" font-size="16" font-weight="800" fill="#005FED" text-anchor="start">KPI</text><line x1="418" y1="803" x2="500" y2="803" stroke="#CBD5E1" stroke-width="3" stroke-linecap="round"/><line x1="418" y1="825" x2="484" y2="825" stroke="#CBD5E1" stroke-width="3" stroke-linecap="round"/><rect x="580" y="740" width="140" height="92" fill="#FFFFFF" rx="14" stroke="#CBD5E1" stroke-width="1.4" filter="url(#smallShadow)"/><text x="598" y="778" font-family="Inter, Arial, sans-serif" font-size="16" font-weight="800" fill="#005FED" text-anchor="start">KPI</text><line x1="598" y1="803" x2="680" y2="803" stroke="#CBD5E1" stroke-width="3" stroke-linecap="round"/><line x1="598" y1="825" x2="664" y2="825" stroke="#CBD5E1" stroke-width="3" stroke-linecap="round"/><rect x="220" y="880" width="540" height="92" fill="#FFFFFF" rx="18" stroke="#CBD5E1" stroke-width="1.4" filter="url(#smallShadow)"/><g><rect x="245.0" y="927.92" width="8.64" height="20.16" fill="#005FED" rx="2.4" opacity="0.55"/><rect x="259.4" y="915.44" width="8.64" height="32.64" fill="#005FED" rx="2.4" opacity="0.55"/><rect x="273.8" y="902.0" width="8.64" height="46.08" fill="#005FED" rx="2.4" opacity="0.55"/></g><line x1="330" y1="910" x2="720" y2="910" stroke="#091F3B" stroke-width="4" stroke-linecap="round"/><line x1="330" y1="938" x2="680" y2="938" stroke="#CBD5E1" stroke-width="3" stroke-linecap="round"/><line x1="330" y1="962" x2="630" y2="962" stroke="#CBD5E1" stroke-width="3" stroke-linecap="round"/>
</svg>
