<?xml version="1.0" encoding="UTF-8"?>
<svg xmlns="http://www.w3.org/2000/svg" width="64" height="64" viewBox="0 0 64 64" role="img" aria-label="Daniel Short logo">
  <defs>
    <linearGradient id="g" x1="0" y1="0" x2="1" y2="1">
      <stop offset="0" stop-color="#2396AD"/>
      <stop offset="1" stop-color="#1A6C7E"/>
    </linearGradient>
  </defs>
  <rect x="2" y="2" width="60" height="60" rx="12" fill="url(#g)"/>
  <!-- Monogram: DS -->
  <g fill="#F1F4F8">
    <!-- D -->
    <path d="M18 20h10c7 0 12 5 12 12s-5 12-12 12H18V20zm8 20c5 0 8-3 8-8s-3-8-8-8h-4v16h4z"/>
    <!-- S -->
    <path d="M36 24c0-2 2-4 6-4 3 0 6 1 8 3l-3 3c-1-1-3-2-5-2-2 0-3 1-3 2 0 1 1 2 4 3l2 1c5 2 7 4 7 7 0 5-4 8-10 8-4 0-7-1-10-4l3-3c2 2 4 3 7 3 3 0 5-1 5-3 0-1-1-2-4-3l-2-1c-5-2-7-4-7-7z"/>
  </g>
</svg>

