<svg xmlns="http://www.w3.org/2000/svg" viewBox="0 0 1200 1200" role="img" aria-labelledby="title desc">
  <title id="title">Campaign Performance Reporting cover</title>
  <desc id="desc">Abstract illustration for campaign analytics, stakeholder reporting, and destination marketing performance.</desc>
  <defs>
    <linearGradient id="bg" x1="0%" y1="0%" x2="100%" y2="100%">
      <stop offset="0%" stop-color="#101824"/>
      <stop offset="45%" stop-color="#16334a"/>
      <stop offset="100%" stop-color="#29495d"/>
    </linearGradient>
    <linearGradient id="signal" x1="0%" y1="0%" x2="100%" y2="0%">
      <stop offset="0%" stop-color="#ffbc66"/>
      <stop offset="100%" stop-color="#ffe2ad"/>
    </linearGradient>
  </defs>
  <rect width="1200" height="1200" rx="48" fill="url(#bg)"/>
  <path d="M0 910c145-81 303-121 474-121 245 0 409 86 726 28v383H0z" fill="#091019" opacity=".38"/>
  <rect x="86" y="90" width="1028" height="1020" rx="36" fill="#08111b" opacity=".62" stroke="#80c8cf" stroke-opacity=".22"/>
  <text x="128" y="188" fill="#ecf7f7" font-family="Poppins, Arial, sans-serif" font-size="54" font-weight="600">Campaign Performance Reporting</text>
  <text x="128" y="242" fill="#a7c4cb" font-family="Inter, Arial, sans-serif" font-size="28">Destination marketing analytics and stakeholder-ready insights</text>

  <rect x="128" y="308" width="516" height="318" rx="26" fill="#122232" stroke="#80c8cf" stroke-opacity=".22"/>
  <text x="164" y="362" fill="#ecf7f7" font-family="Poppins, Arial, sans-serif" font-size="28" font-weight="600">Performance Narrative</text>
  <rect x="164" y="402" width="210" height="18" rx="9" fill="#314e62"/>
  <rect x="164" y="438" width="304" height="18" rx="9" fill="#314e62"/>
  <rect x="164" y="474" width="256" height="18" rx="9" fill="#314e62"/>
  <rect x="164" y="530" width="136" height="42" rx="14" fill="url(#signal)"/>
  <text x="188" y="559" fill="#10212d" font-family="Poppins, Arial, sans-serif" font-size="18" font-weight="600">Campaign ROI</text>
  <rect x="402" y="402" width="206" height="160" rx="18" fill="#16283b"/>
  <path d="M430 518c18-46 48-88 88-94 38-5 58 26 90 18" fill="none" stroke="url(#signal)" stroke-width="8" stroke-linecap="round"/>
  <circle cx="430" cy="518" r="8" fill="#ffe2ad"/>
  <circle cx="518" cy="424" r="8" fill="#ffe2ad"/>
  <circle cx="608" cy="442" r="8" fill="#ffe2ad"/>

  <rect x="676" y="308" width="404" height="318" rx="26" fill="#122232" stroke="#80c8cf" stroke-opacity=".22"/>
  <text x="712" y="362" fill="#ecf7f7" font-family="Poppins, Arial, sans-serif" font-size="28" font-weight="600">Distribution and Stakeholders</text>
  <rect x="712" y="400" width="332" height="54" rx="16" fill="#163047"/>
  <rect x="712" y="474" width="332" height="54" rx="16" fill="#163047"/>
  <text x="744" y="434" fill="#ecf7f7" font-family="Inter, Arial, sans-serif" font-size="24">Industry data update</text>
  <text x="744" y="508" fill="#ecf7f7" font-family="Inter, Arial, sans-serif" font-size="24">Stakeholder newsletter</text>
  <circle cx="996" cy="427" r="10" fill="#ffbc66"/>
  <circle cx="996" cy="501" r="10" fill="#ffbc66"/>

  <rect x="128" y="676" width="952" height="126" rx="24" fill="#102030" stroke="#80c8cf" stroke-opacity=".2"/>
  <text x="164" y="730" fill="#ffbc66" font-family="Inter, Arial, sans-serif" font-size="18" letter-spacing="2">RESULT</text>
  <text x="164" y="770" fill="#ecf7f7" font-family="Poppins, Arial, sans-serif" font-size="44" font-weight="600">565% page-view growth and 122% session growth</text>

  <rect x="128" y="834" width="952" height="224" rx="26" fill="#0e1a28" stroke="#80c8cf" stroke-opacity=".2"/>
  <rect x="164" y="874" width="250" height="146" rx="18" fill="#172a3e"/>
  <rect x="438" y="874" width="250" height="146" rx="18" fill="#172a3e"/>
  <rect x="712" y="874" width="332" height="146" rx="18" fill="#172a3e"/>
  <text x="192" y="918" fill="#ffbc66" font-family="Inter, Arial, sans-serif" font-size="18" letter-spacing="2">CADENCE</text>
  <text x="192" y="962" fill="#ecf7f7" font-family="Poppins, Arial, sans-serif" font-size="44" font-weight="600">99% faster</text>
  <text x="192" y="992" fill="#a7c4cb" font-family="Inter, Arial, sans-serif" font-size="20">Recurring report preparation</text>
  <text x="466" y="918" fill="#ffbc66" font-family="Inter, Arial, sans-serif" font-size="18" letter-spacing="2">FOCUS</text>
  <text x="466" y="962" fill="#ecf7f7" font-family="Poppins, Arial, sans-serif" font-size="32" font-weight="600">Visitor insights</text>
  <text x="466" y="992" fill="#a7c4cb" font-family="Inter, Arial, sans-serif" font-size="20">Marketing performance and stakeholder reporting</text>
</svg>
