<svg xmlns="http://www.w3.org/2000/svg" viewBox="0 0 1200 1200" role="img" aria-labelledby="title desc">
  <title id="title">Destination Performance Dashboard cover</title>
  <desc id="desc">Abstract dashboard illustration with demand charts and stakeholder reporting panels.</desc>
  <defs>
    <linearGradient id="bg" x1="0%" y1="0%" x2="100%" y2="100%">
      <stop offset="0%" stop-color="#0b1220"/>
      <stop offset="60%" stop-color="#12314b"/>
      <stop offset="100%" stop-color="#1a5a63"/>
    </linearGradient>
    <linearGradient id="accent" x1="0%" y1="0%" x2="100%" y2="0%">
      <stop offset="0%" stop-color="#e7a85f"/>
      <stop offset="100%" stop-color="#ffd58f"/>
    </linearGradient>
  </defs>
  <rect width="1200" height="1200" rx="48" fill="url(#bg)"/>
  <circle cx="1010" cy="170" r="170" fill="#ffffff" opacity=".05"/>
  <circle cx="180" cy="980" r="220" fill="#ffffff" opacity=".04"/>
  <rect x="88" y="92" width="1024" height="1016" rx="34" fill="#08111b" opacity=".62" stroke="#7bc6cb" stroke-opacity=".24"/>
  <text x="128" y="190" fill="#e6f6f7" font-family="Poppins, Arial, sans-serif" font-size="54" font-weight="600">Destination Performance Dashboard</text>
  <text x="128" y="244" fill="#9fc0c8" font-family="Inter, Arial, sans-serif" font-size="28">Tourism KPIs, pacing, and stakeholder-ready reporting</text>

  <rect x="128" y="300" width="430" height="292" rx="24" fill="#112234" stroke="#7bc6cb" stroke-opacity=".22"/>
  <text x="160" y="354" fill="#e6f6f7" font-family="Poppins, Arial, sans-serif" font-size="28" font-weight="600">Demand and Revenue Signals</text>
  <rect x="160" y="390" width="74" height="136" rx="12" fill="#355f74"/>
  <rect x="252" y="422" width="74" height="104" rx="12" fill="#477b86"/>
  <rect x="344" y="354" width="74" height="172" rx="12" fill="url(#accent)"/>
  <rect x="436" y="448" width="74" height="78" rx="12" fill="#8ab8b8"/>
  <path d="M160 552h350" stroke="#6d91a3" stroke-width="3"/>

  <rect x="592" y="300" width="488" height="292" rx="24" fill="#112234" stroke="#7bc6cb" stroke-opacity=".22"/>
  <text x="624" y="354" fill="#e6f6f7" font-family="Poppins, Arial, sans-serif" font-size="28" font-weight="600">Stakeholder Reporting Layer</text>
  <path d="M636 500c72-94 136-118 199-98 65 21 103 70 155 63 27-4 53-21 90-57" fill="none" stroke="url(#accent)" stroke-width="10" stroke-linecap="round"/>
  <circle cx="636" cy="500" r="10" fill="#ffd58f"/>
  <circle cx="835" cy="402" r="10" fill="#ffd58f"/>
  <circle cx="990" cy="465" r="10" fill="#ffd58f"/>
  <rect x="636" y="528" width="164" height="18" rx="9" fill="#314f65"/>
  <rect x="636" y="560" width="126" height="18" rx="9" fill="#314f65"/>
  <rect x="826" y="528" width="198" height="18" rx="9" fill="#4e7081"/>
  <rect x="826" y="560" width="142" height="18" rx="9" fill="#4e7081"/>

  <rect x="128" y="640" width="952" height="124" rx="24" fill="#112234" stroke="#7bc6cb" stroke-opacity=".2"/>
  <text x="160" y="706" fill="#e6f6f7" font-family="Poppins, Arial, sans-serif" font-size="28" font-weight="600">Visitor demand</text>
  <text x="430" y="706" fill="#e6f6f7" font-family="Poppins, Arial, sans-serif" font-size="28" font-weight="600">Campaign ROI</text>
  <text x="706" y="706" fill="#e6f6f7" font-family="Poppins, Arial, sans-serif" font-size="28" font-weight="600">Stakeholder insights</text>
  <text x="160" y="738" fill="#9fc0c8" font-family="Inter, Arial, sans-serif" font-size="20">Pacing, lodging, tax, website, and market signals in one view</text>

  <rect x="128" y="806" width="952" height="220" rx="24" fill="#0d1a29" stroke="#7bc6cb" stroke-opacity=".2"/>
  <rect x="160" y="846" width="250" height="132" rx="18" fill="#16283b"/>
  <rect x="438" y="846" width="250" height="132" rx="18" fill="#16283b"/>
  <rect x="716" y="846" width="332" height="132" rx="18" fill="#16283b"/>
  <text x="190" y="900" fill="#ffd58f" font-family="Inter, Arial, sans-serif" font-size="18" letter-spacing="2">KPI</text>
  <text x="190" y="944" fill="#e6f6f7" font-family="Poppins, Arial, sans-serif" font-size="46" font-weight="600">200+ hrs</text>
  <text x="190" y="974" fill="#9fc0c8" font-family="Inter, Arial, sans-serif" font-size="20">Annual reporting time saved</text>
  <text x="468" y="900" fill="#ffd58f" font-family="Inter, Arial, sans-serif" font-size="18" letter-spacing="2">TURNAROUND</text>
  <text x="468" y="944" fill="#e6f6f7" font-family="Poppins, Arial, sans-serif" font-size="46" font-weight="600">99% faster</text>
  <text x="468" y="974" fill="#9fc0c8" font-family="Inter, Arial, sans-serif" font-size="20">Automated recurring stakeholder reporting</text>
</svg>
