<svg xmlns="http://www.w3.org/2000/svg" viewBox="0 0 1200 1200" role="img" aria-labelledby="title desc">
  <title id="title">Event Attendance and Demand Forecasting cover</title>
  <desc id="desc">Abstract forecasting illustration showing scenario planning, attendance curves, and event demand signals.</desc>
  <defs>
    <linearGradient id="bg" x1="0%" y1="0%" x2="100%" y2="100%">
      <stop offset="0%" stop-color="#0d1622"/>
      <stop offset="55%" stop-color="#143349"/>
      <stop offset="100%" stop-color="#1d6570"/>
    </linearGradient>
    <linearGradient id="curve" x1="0%" y1="0%" x2="100%" y2="0%">
      <stop offset="0%" stop-color="#f2b86e"/>
      <stop offset="100%" stop-color="#fff0c8"/>
    </linearGradient>
  </defs>
  <rect width="1200" height="1200" rx="48" fill="url(#bg)"/>
  <circle cx="990" cy="168" r="170" fill="#ffffff" opacity=".05"/>
  <path d="M0 1080c160-84 280-126 500-126 230 0 358 83 700 52v194H0z" fill="#071019" opacity=".36"/>
  <rect x="86" y="88" width="1028" height="1024" rx="36" fill="#08111b" opacity=".62" stroke="#84cdd1" stroke-opacity=".22"/>
  <text x="126" y="188" fill="#eaf7f8" font-family="Poppins, Arial, sans-serif" font-size="52" font-weight="600">Event Attendance &amp; Demand Forecasting</text>
  <text x="126" y="244" fill="#a9c9cf" font-family="Inter, Arial, sans-serif" font-size="28">A bridge project for tourism, sports, and event demand planning</text>

  <rect x="126" y="310" width="620" height="356" rx="28" fill="#102233" stroke="#84cdd1" stroke-opacity=".22"/>
  <text x="166" y="366" fill="#eaf7f8" font-family="Poppins, Arial, sans-serif" font-size="28" font-weight="600">Forecast scenarios</text>
  <path d="M176 590h522" stroke="#6e92a3" stroke-width="3"/>
  <path d="M176 590c78-18 130-53 188-112 51-51 106-92 174-102 71-10 130 14 160 42" fill="none" stroke="#537b86" stroke-width="8" stroke-linecap="round"/>
  <path d="M176 590c84-36 151-88 214-146 58-53 124-88 206-94 60-4 111 10 152 34" fill="none" stroke="url(#curve)" stroke-width="10" stroke-linecap="round"/>
  <path d="M176 590c70-8 126-26 180-66 48-36 98-62 152-68 48-5 103 9 190 58" fill="none" stroke="#9ed9d0" stroke-width="8" stroke-linecap="round"/>
  <text x="176" y="632" fill="#a9c9cf" font-family="Inter, Arial, sans-serif" font-size="20">Downside</text>
  <text x="312" y="632" fill="#fff0c8" font-family="Inter, Arial, sans-serif" font-size="20">Expected</text>
  <text x="452" y="632" fill="#9ed9d0" font-family="Inter, Arial, sans-serif" font-size="20">Best case</text>

  <rect x="780" y="310" width="300" height="356" rx="28" fill="#102233" stroke="#84cdd1" stroke-opacity=".22"/>
  <text x="818" y="366" fill="#eaf7f8" font-family="Poppins, Arial, sans-serif" font-size="28" font-weight="600">Planning inputs</text>
  <rect x="818" y="404" width="224" height="48" rx="14" fill="#163046"/>
  <rect x="818" y="474" width="224" height="48" rx="14" fill="#163046"/>
  <rect x="818" y="544" width="224" height="48" rx="14" fill="#163046"/>
  <text x="846" y="436" fill="#eaf7f8" font-family="Inter, Arial, sans-serif" font-size="22">Historical pacing</text>
  <text x="846" y="506" fill="#eaf7f8" font-family="Inter, Arial, sans-serif" font-size="22">Market segments</text>
  <text x="846" y="576" fill="#eaf7f8" font-family="Inter, Arial, sans-serif" font-size="22">Channel mix</text>

  <rect x="126" y="716" width="954" height="126" rx="24" fill="#102131" stroke="#84cdd1" stroke-opacity=".2"/>
  <text x="160" y="768" fill="#f2b86e" font-family="Inter, Arial, sans-serif" font-size="18" letter-spacing="2">TRANSFERABILITY</text>
  <text x="160" y="808" fill="#eaf7f8" font-family="Poppins, Arial, sans-serif" font-size="36" font-weight="600">Tourism demand logic also fits sports and events planning</text>

  <rect x="126" y="872" width="954" height="180" rx="24" fill="#0f1b29" stroke="#84cdd1" stroke-opacity=".2"/>
  <text x="162" y="926" fill="#f2b86e" font-family="Inter, Arial, sans-serif" font-size="18" letter-spacing="2">OUTPUTS</text>
  <text x="162" y="968" fill="#eaf7f8" font-family="Poppins, Arial, sans-serif" font-size="30" font-weight="600">Forecast tables, scenario ranges, staffing flags, and revenue checkpoints</text>
  <text x="162" y="1008" fill="#a9c9cf" font-family="Inter, Arial, sans-serif" font-size="22">Visitor demand, customer demand, and attendance forecasting use the same planning discipline.</text>
</svg>
