<svg xmlns="http://www.w3.org/2000/svg" width="1024" height="128" viewBox="0 0 1024 128" shape-rendering="geometricPrecision"><svg x="0" y="0" width="128" height="128" viewBox="0 0 128 128" overflow="hidden"><g transform="translate(64 64) rotate(-62)"><defs><linearGradient id="training-sword-0-0-base" x1="0" y1="0" x2=".72" y2="1"><stop stop-color="#deeef9"/><stop offset=".38" stop-color="#aebec9"/><stop offset="1" stop-color="#84949f"/></linearGradient><linearGradient id="training-sword-0-0-trim" x1="0" y1="0" x2=".72" y2="1"><stop stop-color="#ffffff"/><stop offset=".38" stop-color="#eaf5ff"/><stop offset="1" stop-color="#c0cbd5"/></linearGradient><linearGradient id="training-sword-0-0-grip" x1="0" y1="0" x2=".72" y2="1"><stop stop-color="#bf8f69"/><stop offset=".38" stop-color="#8f5f39"/><stop offset="1" stop-color="#65350f"/></linearGradient><linearGradient id="training-sword-0-0-gem" x1="0" y1="0" x2=".72" y2="1"><stop stop-color="#b3ffff"/><stop offset=".38" stop-color="#83d5ed"/><stop offset="1" stop-color="#59abc3"/></linearGradient></defs><path d="M-39 -4 Q-28 -6 -17 -3 L-17 4 Q-28 6 -39 4Z" fill="url(#training-sword-0-0-grip)" stroke="#242735" stroke-width="1.6" stroke-linejoin="round" stroke-linecap="round"/><path d="M-35 -3 L-31 4 M-29 -3 L-25 4" fill="none" stroke="#71411b" stroke-width="1.3" stroke-linejoin="round" stroke-linecap="round"/><ellipse cx="-39" cy="0" rx="5" ry="6" fill="url(#training-sword-0-0-trim)" stroke="#242735" stroke-width="1.5"/><path d="M-17 -6 L32 -7 L48 0 L32 7 L-17 6Z" fill="url(#training-sword-0-0-base)" stroke="#242735" stroke-width="1.6" stroke-linejoin="round" stroke-linecap="round"/><path d="M-14 -4 L32 -5 L45 0 L-14 0Z" fill="#f4f1e7" stroke="none" stroke-width="1.6" stroke-linejoin="round" stroke-linecap="round"/><path d="M-23 -11 Q-18 -15 -15 -8 L-14 8 Q-18 15 -23 11 L-20 2 L-20 -2Z" fill="url(#training-sword-0-0-trim)" stroke="#242735" stroke-width="1.6" stroke-linejoin="round" stroke-linecap="round"/></g></svg><svg x="128" y="0" width="128" height="128" viewBox="0 0 128 128" overflow="hidden"><g transform="translate(64 64) rotate(-34)"><defs><linearGradient id="training-sword-0-1-base" x1="0" y1="0" x2=".72" y2="1"><stop stop-color="#deeef9"/><stop offset=".38" stop-color="#aebec9"/><stop offset="1" stop-color="#84949f"/></linearGradient><linearGradient id="training-sword-0-1-trim" x1="0" y1="0" x2=".72" y2="1"><stop stop-color="#ffffff"/><stop offset=".38" stop-color="#eaf5ff"/><stop offset="1" stop-color="#c0cbd5"/></linearGradient><linearGradient id="training-sword-0-1-grip" x1="0" y1="0" x2=".72" y2="1"><stop stop-color="#bf8f69"/><stop offset=".38" stop-color="#8f5f39"/><stop offset="1" stop-color="#65350f"/></linearGradient><linearGradient id="training-sword-0-1-gem" x1="0" y1="0" x2=".72" y2="1"><stop stop-color="#b3ffff"/><stop offset=".38" stop-color="#83d5ed"/><stop offset="1" stop-color="#59abc3"/></linearGradient></defs><path d="M-39 -4 Q-28 -6 -17 -3 L-17 4 Q-28 6 -39 4Z" fill="url(#training-sword-0-1-grip)" stroke="#242735" stroke-width="1.6" stroke-linejoin="round" stroke-linecap="round"/><path d="M-35 -3 L-31 4 M-29 -3 L-25 4" fill="none" stroke="#71411b" stroke-width="1.3" stroke-linejoin="round" stroke-linecap="round"/><ellipse cx="-39" cy="0" rx="5" ry="6" fill="url(#training-sword-0-1-trim)" stroke="#242735" stroke-width="1.5"/><path d="M-17 -6 L32 -7 L48 0 L32 7 L-17 6Z" fill="url(#training-sword-0-1-base)" stroke="#242735" stroke-width="1.6" stroke-linejoin="round" stroke-linecap="round"/><path d="M-14 -4 L32 -5 L45 0 L-14 0Z" fill="#f4f1e7" stroke="none" stroke-width="1.6" stroke-linejoin="round" stroke-linecap="round"/><path d="M-23 -11 Q-18 -15 -15 -8 L-14 8 Q-18 15 -23 11 L-20 2 L-20 -2Z" fill="url(#training-sword-0-1-trim)" stroke="#242735" stroke-width="1.6" stroke-linejoin="round" stroke-linecap="round"/></g></svg><svg x="256" y="0" width="128" height="128" viewBox="0 0 128 128" overflow="hidden"><g transform="translate(64 64) rotate(-7)"><defs><linearGradient id="training-sword-0-2-base" x1="0" y1="0" x2=".72" y2="1"><stop stop-color="#deeef9"/><stop offset=".38" stop-color="#aebec9"/><stop offset="1" stop-color="#84949f"/></linearGradient><linearGradient id="training-sword-0-2-trim" x1="0" y1="0" x2=".72" y2="1"><stop stop-color="#ffffff"/><stop offset=".38" stop-color="#eaf5ff"/><stop offset="1" stop-color="#c0cbd5"/></linearGradient><linearGradient id="training-sword-0-2-grip" x1="0" y1="0" x2=".72" y2="1"><stop stop-color="#bf8f69"/><stop offset=".38" stop-color="#8f5f39"/><stop offset="1" stop-color="#65350f"/></linearGradient><linearGradient id="training-sword-0-2-gem" x1="0" y1="0" x2=".72" y2="1"><stop stop-color="#b3ffff"/><stop offset=".38" stop-color="#83d5ed"/><stop offset="1" stop-color="#59abc3"/></linearGradient></defs><path d="M-39 -4 Q-28 -6 -17 -3 L-17 4 Q-28 6 -39 4Z" fill="url(#training-sword-0-2-grip)" stroke="#242735" stroke-width="1.6" stroke-linejoin="round" stroke-linecap="round"/><path d="M-35 -3 L-31 4 M-29 -3 L-25 4" fill="none" stroke="#71411b" stroke-width="1.3" stroke-linejoin="round" stroke-linecap="round"/><ellipse cx="-39" cy="0" rx="5" ry="6" fill="url(#training-sword-0-2-trim)" stroke="#242735" stroke-width="1.5"/><path d="M-17 -6 L32 -7 L48 0 L32 7 L-17 6Z" fill="url(#training-sword-0-2-base)" stroke="#242735" stroke-width="1.6" stroke-linejoin="round" stroke-linecap="round"/><path d="M-14 -4 L32 -5 L45 0 L-14 0Z" fill="#f4f1e7" stroke="none" stroke-width="1.6" stroke-linejoin="round" stroke-linecap="round"/><path d="M-23 -11 Q-18 -15 -15 -8 L-14 8 Q-18 15 -23 11 L-20 2 L-20 -2Z" fill="url(#training-sword-0-2-trim)" stroke="#242735" stroke-width="1.6" stroke-linejoin="round" stroke-linecap="round"/></g></svg><svg x="384" y="0" width="128" height="128" viewBox="0 0 128 128" overflow="hidden"><g transform="translate(64 64) rotate(8)"><defs><linearGradient id="training-sword-0-3-base" x1="0" y1="0" x2=".72" y2="1"><stop stop-color="#deeef9"/><stop offset=".38" stop-color="#aebec9"/><stop offset="1" stop-color="#84949f"/></linearGradient><linearGradient id="training-sword-0-3-trim" x1="0" y1="0" x2=".72" y2="1"><stop stop-color="#ffffff"/><stop offset=".38" stop-color="#eaf5ff"/><stop offset="1" stop-color="#c0cbd5"/></linearGradient><linearGradient id="training-sword-0-3-grip" x1="0" y1="0" x2=".72" y2="1"><stop stop-color="#bf8f69"/><stop offset=".38" stop-color="#8f5f39"/><stop offset="1" stop-color="#65350f"/></linearGradient><linearGradient id="training-sword-0-3-gem" x1="0" y1="0" x2=".72" y2="1"><stop stop-color="#b3ffff"/><stop offset=".38" stop-color="#83d5ed"/><stop offset="1" stop-color="#59abc3"/></linearGradient></defs><path d="M-39 -4 Q-28 -6 -17 -3 L-17 4 Q-28 6 -39 4Z" fill="url(#training-sword-0-3-grip)" stroke="#242735" stroke-width="1.6" stroke-linejoin="round" stroke-linecap="round"/><path d="M-35 -3 L-31 4 M-29 -3 L-25 4" fill="none" stroke="#71411b" stroke-width="1.3" stroke-linejoin="round" stroke-linecap="round"/><ellipse cx="-39" cy="0" rx="5" ry="6" fill="url(#training-sword-0-3-trim)" stroke="#242735" stroke-width="1.5"/><path d="M-17 -6 L32 -7 L48 0 L32 7 L-17 6Z" fill="url(#training-sword-0-3-base)" stroke="#242735" stroke-width="1.6" stroke-linejoin="round" stroke-linecap="round"/><path d="M-14 -4 L32 -5 L45 0 L-14 0Z" fill="#f4f1e7" stroke="none" stroke-width="1.6" stroke-linejoin="round" stroke-linecap="round"/><path d="M-23 -11 Q-18 -15 -15 -8 L-14 8 Q-18 15 -23 11 L-20 2 L-20 -2Z" fill="url(#training-sword-0-3-trim)" stroke="#242735" stroke-width="1.6" stroke-linejoin="round" stroke-linecap="round"/></g></svg><svg x="512" y="0" width="128" height="128" viewBox="0 0 128 128" overflow="hidden"><g transform="translate(64 64) rotate(25)"><defs><linearGradient id="training-sword-0-4-base" x1="0" y1="0" x2=".72" y2="1"><stop stop-color="#deeef9"/><stop offset=".38" stop-color="#aebec9"/><stop offset="1" stop-color="#84949f"/></linearGradient><linearGradient id="training-sword-0-4-trim" x1="0" y1="0" x2=".72" y2="1"><stop stop-color="#ffffff"/><stop offset=".38" stop-color="#eaf5ff"/><stop offset="1" stop-color="#c0cbd5"/></linearGradient><linearGradient id="training-sword-0-4-grip" x1="0" y1="0" x2=".72" y2="1"><stop stop-color="#bf8f69"/><stop offset=".38" stop-color="#8f5f39"/><stop offset="1" stop-color="#65350f"/></linearGradient><linearGradient id="training-sword-0-4-gem" x1="0" y1="0" x2=".72" y2="1"><stop stop-color="#b3ffff"/><stop offset=".38" stop-color="#83d5ed"/><stop offset="1" stop-color="#59abc3"/></linearGradient></defs><path d="M-39 -4 Q-28 -6 -17 -3 L-17 4 Q-28 6 -39 4Z" fill="url(#training-sword-0-4-grip)" stroke="#242735" stroke-width="1.6" stroke-linejoin="round" stroke-linecap="round"/><path d="M-35 -3 L-31 4 M-29 -3 L-25 4" fill="none" stroke="#71411b" stroke-width="1.3" stroke-linejoin="round" stroke-linecap="round"/><ellipse cx="-39" cy="0" rx="5" ry="6" fill="url(#training-sword-0-4-trim)" stroke="#242735" stroke-width="1.5"/><path d="M-17 -6 L32 -7 L48 0 L32 7 L-17 6Z" fill="url(#training-sword-0-4-base)" stroke="#242735" stroke-width="1.6" stroke-linejoin="round" stroke-linecap="round"/><path d="M-14 -4 L32 -5 L45 0 L-14 0Z" fill="#f4f1e7" stroke="none" stroke-width="1.6" stroke-linejoin="round" stroke-linecap="round"/><path d="M-23 -11 Q-18 -15 -15 -8 L-14 8 Q-18 15 -23 11 L-20 2 L-20 -2Z" fill="url(#training-sword-0-4-trim)" stroke="#242735" stroke-width="1.6" stroke-linejoin="round" stroke-linecap="round"/></g></svg><svg x="640" y="0" width="128" height="128" viewBox="0 0 128 128" overflow="hidden"><g transform="translate(64 64) rotate(42)"><defs><linearGradient id="training-sword-0-5-base" x1="0" y1="0" x2=".72" y2="1"><stop stop-color="#deeef9"/><stop offset=".38" stop-color="#aebec9"/><stop offset="1" stop-color="#84949f"/></linearGradient><linearGradient id="training-sword-0-5-trim" x1="0" y1="0" x2=".72" y2="1"><stop stop-color="#ffffff"/><stop offset=".38" stop-color="#eaf5ff"/><stop offset="1" stop-color="#c0cbd5"/></linearGradient><linearGradient id="training-sword-0-5-grip" x1="0" y1="0" x2=".72" y2="1"><stop stop-color="#bf8f69"/><stop offset=".38" stop-color="#8f5f39"/><stop offset="1" stop-color="#65350f"/></linearGradient><linearGradient id="training-sword-0-5-gem" x1="0" y1="0" x2=".72" y2="1"><stop stop-color="#b3ffff"/><stop offset=".38" stop-color="#83d5ed"/><stop offset="1" stop-color="#59abc3"/></linearGradient></defs><path d="M-39 -4 Q-28 -6 -17 -3 L-17 4 Q-28 6 -39 4Z" fill="url(#training-sword-0-5-grip)" stroke="#242735" stroke-width="1.6" stroke-linejoin="round" stroke-linecap="round"/><path d="M-35 -3 L-31 4 M-29 -3 L-25 4" fill="none" stroke="#71411b" stroke-width="1.3" stroke-linejoin="round" stroke-linecap="round"/><ellipse cx="-39" cy="0" rx="5" ry="6" fill="url(#training-sword-0-5-trim)" stroke="#242735" stroke-width="1.5"/><path d="M-17 -6 L32 -7 L48 0 L32 7 L-17 6Z" fill="url(#training-sword-0-5-base)" stroke="#242735" stroke-width="1.6" stroke-linejoin="round" stroke-linecap="round"/><path d="M-14 -4 L32 -5 L45 0 L-14 0Z" fill="#f4f1e7" stroke="none" stroke-width="1.6" stroke-linejoin="round" stroke-linecap="round"/><path d="M-23 -11 Q-18 -15 -15 -8 L-14 8 Q-18 15 -23 11 L-20 2 L-20 -2Z" fill="url(#training-sword-0-5-trim)" stroke="#242735" stroke-width="1.6" stroke-linejoin="round" stroke-linecap="round"/></g></svg><svg x="768" y="0" width="128" height="128" viewBox="0 0 128 128" overflow="hidden"><g transform="translate(64 64) rotate(62)"><defs><linearGradient id="training-sword-0-6-base" x1="0" y1="0" x2=".72" y2="1"><stop stop-color="#deeef9"/><stop offset=".38" stop-color="#aebec9"/><stop offset="1" stop-color="#84949f"/></linearGradient><linearGradient id="training-sword-0-6-trim" x1="0" y1="0" x2=".72" y2="1"><stop stop-color="#ffffff"/><stop offset=".38" stop-color="#eaf5ff"/><stop offset="1" stop-color="#c0cbd5"/></linearGradient><linearGradient id="training-sword-0-6-grip" x1="0" y1="0" x2=".72" y2="1"><stop stop-color="#bf8f69"/><stop offset=".38" stop-color="#8f5f39"/><stop offset="1" stop-color="#65350f"/></linearGradient><linearGradient id="training-sword-0-6-gem" x1="0" y1="0" x2=".72" y2="1"><stop stop-color="#b3ffff"/><stop offset=".38" stop-color="#83d5ed"/><stop offset="1" stop-color="#59abc3"/></linearGradient></defs><path d="M-39 -4 Q-28 -6 -17 -3 L-17 4 Q-28 6 -39 4Z" fill="url(#training-sword-0-6-grip)" stroke="#242735" stroke-width="1.6" stroke-linejoin="round" stroke-linecap="round"/><path d="M-35 -3 L-31 4 M-29 -3 L-25 4" fill="none" stroke="#71411b" stroke-width="1.3" stroke-linejoin="round" stroke-linecap="round"/><ellipse cx="-39" cy="0" rx="5" ry="6" fill="url(#training-sword-0-6-trim)" stroke="#242735" stroke-width="1.5"/><path d="M-17 -6 L32 -7 L48 0 L32 7 L-17 6Z" fill="url(#training-sword-0-6-base)" stroke="#242735" stroke-width="1.6" stroke-linejoin="round" stroke-linecap="round"/><path d="M-14 -4 L32 -5 L45 0 L-14 0Z" fill="#f4f1e7" stroke="none" stroke-width="1.6" stroke-linejoin="round" stroke-linecap="round"/><path d="M-23 -11 Q-18 -15 -15 -8 L-14 8 Q-18 15 -23 11 L-20 2 L-20 -2Z" fill="url(#training-sword-0-6-trim)" stroke="#242735" stroke-width="1.6" stroke-linejoin="round" stroke-linecap="round"/></g></svg><svg x="896" y="0" width="128" height="128" viewBox="0 0 128 128" overflow="hidden"><g transform="translate(64 64) rotate(78)"><defs><linearGradient id="training-sword-0-7-base" x1="0" y1="0" x2=".72" y2="1"><stop stop-color="#deeef9"/><stop offset=".38" stop-color="#aebec9"/><stop offset="1" stop-color="#84949f"/></linearGradient><linearGradient id="training-sword-0-7-trim" x1="0" y1="0" x2=".72" y2="1"><stop stop-color="#ffffff"/><stop offset=".38" stop-color="#eaf5ff"/><stop offset="1" stop-color="#c0cbd5"/></linearGradient><linearGradient id="training-sword-0-7-grip" x1="0" y1="0" x2=".72" y2="1"><stop stop-color="#bf8f69"/><stop offset=".38" stop-color="#8f5f39"/><stop offset="1" stop-color="#65350f"/></linearGradient><linearGradient id="training-sword-0-7-gem" x1="0" y1="0" x2=".72" y2="1"><stop stop-color="#b3ffff"/><stop offset=".38" stop-color="#83d5ed"/><stop offset="1" stop-color="#59abc3"/></linearGradient></defs><path d="M-39 -4 Q-28 -6 -17 -3 L-17 4 Q-28 6 -39 4Z" fill="url(#training-sword-0-7-grip)" stroke="#242735" stroke-width="1.6" stroke-linejoin="round" stroke-linecap="round"/><path d="M-35 -3 L-31 4 M-29 -3 L-25 4" fill="none" stroke="#71411b" stroke-width="1.3" stroke-linejoin="round" stroke-linecap="round"/><ellipse cx="-39" cy="0" rx="5" ry="6" fill="url(#training-sword-0-7-trim)" stroke="#242735" stroke-width="1.5"/><path d="M-17 -6 L32 -7 L48 0 L32 7 L-17 6Z" fill="url(#training-sword-0-7-base)" stroke="#242735" stroke-width="1.6" stroke-linejoin="round" stroke-linecap="round"/><path d="M-14 -4 L32 -5 L45 0 L-14 0Z" fill="#f4f1e7" stroke="none" stroke-width="1.6" stroke-linejoin="round" stroke-linecap="round"/><path d="M-23 -11 Q-18 -15 -15 -8 L-14 8 Q-18 15 -23 11 L-20 2 L-20 -2Z" fill="url(#training-sword-0-7-trim)" stroke="#242735" stroke-width="1.6" stroke-linejoin="round" stroke-linecap="round"/></g></svg></svg>